<mxfile host="app.diagrams.net" modified="2023-01-30T13:32:11.929Z" agent="5.0 (Macintosh; Intel Mac OS X 10_15_7) AppleWebKit/537.36 (KHTML, like Gecko) Chrome/109.0.0.0 Safari/537.36" etag="cwZTvB1xE1CmIstsbKTN" version="20.8.13" type="github">
  <diagram id="C5RBs43oDa-KdzZeNtuy" name="Page-1">
    <mxGraphModel dx="954" dy="533" grid="1" gridSize="10" guides="1" tooltips="1" connect="1" arrows="1" fold="1" page="1" pageScale="1" pageWidth="827" pageHeight="1169" math="0" shadow="0">
      <root>
        <mxCell id="WIyWlLk6GJQsqaUBKTNV-0" />
        <mxCell id="WIyWlLk6GJQsqaUBKTNV-1" parent="WIyWlLk6GJQsqaUBKTNV-0" />
        <mxCell id="OjZRt4CfxiASJVV16yko-20" style="edgeStyle=orthogonalEdgeStyle;rounded=0;orthogonalLoop=1;jettySize=auto;html=1;" edge="1" parent="WIyWlLk6GJQsqaUBKTNV-1" source="WIyWlLk6GJQsqaUBKTNV-3" target="WIyWlLk6GJQsqaUBKTNV-6">
          <mxGeometry relative="1" as="geometry" />
        </mxCell>
        <mxCell id="WIyWlLk6GJQsqaUBKTNV-3" value="INPUT YEAR" style="rounded=1;whiteSpace=wrap;html=1;fontSize=12;glass=0;strokeWidth=1;shadow=0;" parent="WIyWlLk6GJQsqaUBKTNV-1" vertex="1">
          <mxGeometry x="215" y="60" width="120" height="30" as="geometry" />
        </mxCell>
        <mxCell id="OjZRt4CfxiASJVV16yko-21" value="YES" style="edgeStyle=orthogonalEdgeStyle;rounded=0;orthogonalLoop=1;jettySize=auto;html=1;" edge="1" parent="WIyWlLk6GJQsqaUBKTNV-1" source="WIyWlLk6GJQsqaUBKTNV-6" target="OjZRt4CfxiASJVV16yko-16">
          <mxGeometry relative="1" as="geometry" />
        </mxCell>
        <mxCell id="WIyWlLk6GJQsqaUBKTNV-6" value="DIVISIBLE BY 4&lt;br&gt;" style="rhombus;whiteSpace=wrap;html=1;shadow=0;fontFamily=Helvetica;fontSize=12;align=center;strokeWidth=1;spacing=6;spacingTop=-4;" parent="WIyWlLk6GJQsqaUBKTNV-1" vertex="1">
          <mxGeometry x="20" y="160" width="120" height="100" as="geometry" />
        </mxCell>
        <mxCell id="OjZRt4CfxiASJVV16yko-26" value="YES" style="edgeStyle=orthogonalEdgeStyle;rounded=0;orthogonalLoop=1;jettySize=auto;html=1;entryX=1;entryY=0.5;entryDx=0;entryDy=0;" edge="1" parent="WIyWlLk6GJQsqaUBKTNV-1" source="OjZRt4CfxiASJVV16yko-5" target="OjZRt4CfxiASJVV16yko-10">
          <mxGeometry relative="1" as="geometry" />
        </mxCell>
        <mxCell id="OjZRt4CfxiASJVV16yko-5" value="DIVISIBLE BY 400" style="rhombus;whiteSpace=wrap;html=1;rounded=1;glass=0;strokeWidth=1;shadow=0;" vertex="1" parent="WIyWlLk6GJQsqaUBKTNV-1">
          <mxGeometry x="430" y="150" width="105" height="120" as="geometry" />
        </mxCell>
        <mxCell id="OjZRt4CfxiASJVV16yko-10" value="LEAP YEAR!" style="rounded=0;whiteSpace=wrap;html=1;" vertex="1" parent="WIyWlLk6GJQsqaUBKTNV-1">
          <mxGeometry x="222.5" y="390" width="120" height="80" as="geometry" />
        </mxCell>
        <mxCell id="OjZRt4CfxiASJVV16yko-13" value="NOT A LEAP YEAR" style="rounded=0;whiteSpace=wrap;html=1;" vertex="1" parent="WIyWlLk6GJQsqaUBKTNV-1">
          <mxGeometry x="630" y="380" width="120" height="80" as="geometry" />
        </mxCell>
        <mxCell id="OjZRt4CfxiASJVV16yko-24" value="NO" style="edgeStyle=orthogonalEdgeStyle;rounded=0;orthogonalLoop=1;jettySize=auto;html=1;" edge="1" parent="WIyWlLk6GJQsqaUBKTNV-1" source="OjZRt4CfxiASJVV16yko-16" target="OjZRt4CfxiASJVV16yko-10">
          <mxGeometry relative="1" as="geometry" />
        </mxCell>
        <mxCell id="OjZRt4CfxiASJVV16yko-25" value="YES" style="edgeStyle=orthogonalEdgeStyle;rounded=0;orthogonalLoop=1;jettySize=auto;html=1;" edge="1" parent="WIyWlLk6GJQsqaUBKTNV-1" source="OjZRt4CfxiASJVV16yko-16" target="OjZRt4CfxiASJVV16yko-5">
          <mxGeometry relative="1" as="geometry" />
        </mxCell>
        <mxCell id="OjZRt4CfxiASJVV16yko-16" value="DIVISIBLE&lt;br&gt;BY 100" style="rhombus;whiteSpace=wrap;html=1;rounded=0;" vertex="1" parent="WIyWlLk6GJQsqaUBKTNV-1">
          <mxGeometry x="227.5" y="160" width="110" height="100" as="geometry" />
        </mxCell>
      </root>
    </mxGraphModel>
  </diagram>
</mxfile>
